<mxfile host="app.diagrams.net" modified="2022-02-18T01:50:33.087Z" agent="5.0 (Windows NT 10.0; Win64; x64) AppleWebKit/537.36 (KHTML, like Gecko) Chrome/98.0.4758.102 Safari/537.36" etag="ERRih9HtQfzbeisslWHT" version="16.5.6" type="github">
  <diagram id="vuYvmgYbJ-c0nTtxZ2DZ" name="Page-1">
    <mxGraphModel dx="2062" dy="1122" grid="1" gridSize="10" guides="1" tooltips="1" connect="1" arrows="1" fold="1" page="1" pageScale="1" pageWidth="850" pageHeight="1100" math="0" shadow="0">
      <root>
        <mxCell id="0" />
        <mxCell id="1" parent="0" />
        <mxCell id="T2gHljznmlCYLtyOfOVh-1" value="JobHistory&lt;br&gt;02-10" style="ellipse;whiteSpace=wrap;html=1;aspect=fixed;" vertex="1" parent="1">
          <mxGeometry x="90" y="330" width="80" height="80" as="geometry" />
        </mxCell>
        <mxCell id="T2gHljznmlCYLtyOfOVh-2" value="JobHistory&lt;br&gt;02-11" style="ellipse;whiteSpace=wrap;html=1;aspect=fixed;" vertex="1" parent="1">
          <mxGeometry x="360" y="330" width="80" height="80" as="geometry" />
        </mxCell>
        <mxCell id="T2gHljznmlCYLtyOfOVh-3" value="" style="endArrow=none;dashed=1;html=1;dashPattern=1 3;strokeWidth=2;rounded=0;" edge="1" parent="1">
          <mxGeometry width="50" height="50" relative="1" as="geometry">
            <mxPoint x="84" y="440" as="sourcePoint" />
            <mxPoint x="724" y="440" as="targetPoint" />
          </mxGeometry>
        </mxCell>
        <mxCell id="T2gHljznmlCYLtyOfOVh-4" value="JobHistory&lt;br&gt;02-13" style="ellipse;whiteSpace=wrap;html=1;aspect=fixed;" vertex="1" parent="1">
          <mxGeometry x="630" y="330" width="80" height="80" as="geometry" />
        </mxCell>
        <mxCell id="T2gHljznmlCYLtyOfOVh-9" value="OspGenericJob" style="text;html=1;align=center;verticalAlign=middle;resizable=0;points=[];autosize=1;strokeColor=none;fillColor=none;" vertex="1" parent="1">
          <mxGeometry x="730" y="360" width="100" height="20" as="geometry" />
        </mxCell>
        <mxCell id="T2gHljznmlCYLtyOfOVh-10" value="doWork" style="text;html=1;align=center;verticalAlign=middle;resizable=0;points=[];autosize=1;strokeColor=none;fillColor=none;" vertex="1" parent="1">
          <mxGeometry x="760" y="545" width="60" height="20" as="geometry" />
        </mxCell>
        <mxCell id="T2gHljznmlCYLtyOfOVh-11" value="SubHistory&lt;br&gt;02-10" style="ellipse;whiteSpace=wrap;html=1;aspect=fixed;" vertex="1" parent="1">
          <mxGeometry x="90" y="480" width="80" height="80" as="geometry" />
        </mxCell>
        <mxCell id="T2gHljznmlCYLtyOfOVh-12" value="SubHistory&lt;br&gt;02-11" style="ellipse;whiteSpace=wrap;html=1;aspect=fixed;" vertex="1" parent="1">
          <mxGeometry x="360" y="480" width="80" height="80" as="geometry" />
        </mxCell>
        <mxCell id="T2gHljznmlCYLtyOfOVh-13" value="SubHistory&lt;br&gt;02-12" style="ellipse;whiteSpace=wrap;html=1;aspect=fixed;" vertex="1" parent="1">
          <mxGeometry x="580" y="485" width="80" height="80" as="geometry" />
        </mxCell>
        <mxCell id="T2gHljznmlCYLtyOfOVh-14" value="SubHistory&lt;br&gt;02-13" style="ellipse;whiteSpace=wrap;html=1;aspect=fixed;" vertex="1" parent="1">
          <mxGeometry x="690" y="485" width="80" height="80" as="geometry" />
        </mxCell>
      </root>
    </mxGraphModel>
  </diagram>
</mxfile>
